<svg width="864" height="201" viewBox="0 0 864 201" fill="none" xmlns="http://www.w3.org/2000/svg">
<rect width="200" height="200" rx="100" fill="#0A7AF9"/>
<path fill-rule="evenodd" clip-rule="evenodd" d="M112.347 47.2746C111.448 47.3271 110.999 47.3533 110.577 47.4729C110.204 47.5789 109.847 47.7388 109.52 47.9475C109.15 48.1829 108.832 48.5013 108.195 49.1382L54.5069 102.826C52.9353 104.398 52.1495 105.184 51.8521 106.091C51.5905 106.889 51.5867 107.749 51.8414 108.55C52.1308 109.46 52.9097 110.252 54.4675 111.837L67.368 124.966C67.5658 125.167 67.6647 125.268 67.7793 125.306C67.8801 125.339 67.9889 125.34 68.09 125.307C68.2049 125.27 68.3047 125.17 68.5043 124.971L83.5583 109.917C85.0838 108.391 87.5571 108.391 89.0826 109.917C90.6081 111.442 90.6081 113.915 89.0826 115.441L74.0285 130.495C73.829 130.694 73.7292 130.794 73.6922 130.909C73.6596 131.01 73.6601 131.119 73.6935 131.22C73.7315 131.334 73.8322 131.433 74.0335 131.631L87.1624 144.532C88.7477 146.09 89.5403 146.869 90.4501 147.159C91.2505 147.413 92.1108 147.409 92.9089 147.148C93.8162 146.85 94.602 146.065 96.1736 144.493L149.881 90.7854C150.511 90.1555 150.826 89.8406 151.06 89.4756C151.267 89.1519 151.426 88.7999 151.533 88.4307C151.654 88.0144 151.683 87.57 151.742 86.6811L154.146 50.2371C154.269 48.3623 154.331 47.4249 153.997 46.7204C153.704 46.1018 153.208 45.6021 152.592 45.3042C151.89 44.965 150.952 45.0198 149.076 45.1293L112.347 47.2746ZM125.554 83.8724C125.554 89.6254 120.891 94.2891 115.138 94.2891C109.385 94.2891 104.721 89.6254 104.721 83.8724C104.721 78.1194 109.385 73.4557 115.138 73.4557C120.891 73.4557 125.554 78.1194 125.554 83.8724Z" fill="url(#paint0_linear_8_6)"/>
<path d="M40.3848 80.1172C39.8297 79.7457 39.5521 79.56 39.4338 79.3157C39.33 79.1015 39.3061 78.8574 39.3662 78.6271C39.4348 78.3645 39.6709 78.1284 40.1433 77.6561L59.1594 58.6405C60.1315 57.6684 60.6176 57.1823 61.1944 56.8927C61.7046 56.6364 62.2638 56.4923 62.8343 56.4702C63.4793 56.4451 64.1397 56.6359 65.4605 57.0173L85.0189 62.6655C85.4474 62.7893 85.6617 62.8512 85.7612 62.9775C85.8481 63.0878 85.8846 63.2295 85.8618 63.368C85.8357 63.5267 85.678 63.6844 85.3626 63.9998L58.1396 91.2228C57.9742 91.3883 57.8915 91.471 57.794 91.5091C57.7081 91.5427 57.6146 91.5519 57.5237 91.5356C57.4208 91.5172 57.3235 91.4521 57.129 91.322L40.3848 80.1172Z" fill="url(#paint1_linear_8_6)"/>
<path d="M110.282 139.108C110.152 138.914 110.087 138.817 110.068 138.714C110.052 138.623 110.061 138.529 110.095 138.443C110.133 138.346 110.216 138.263 110.381 138.098L137.604 110.875C137.919 110.559 138.077 110.402 138.236 110.376C138.374 110.353 138.516 110.389 138.626 110.476C138.753 110.576 138.815 110.79 138.938 111.218L144.591 130.779C144.972 132.1 145.163 132.761 145.138 133.406C145.116 133.977 144.972 134.536 144.716 135.046C144.426 135.623 143.94 136.109 142.968 137.081L123.952 156.097C123.479 156.57 123.243 156.806 122.981 156.874C122.75 156.935 122.506 156.911 122.292 156.807C122.048 156.689 121.862 156.411 121.491 155.856L110.282 139.108Z" fill="url(#paint2_linear_8_6)"/>
<path d="M233.056 162V31.056H259.552V84.048C264.928 75.6 275.104 69.648 287.2 69.648C305.44 69.648 321.184 81.552 321.184 109.392V162H294.688V113.616C294.688 97.872 286.432 93.072 277.984 93.072C265.696 93.072 259.552 102.864 259.552 115.92V162H233.056ZM339.015 162V71.76H365.511V162H339.015ZM352.263 58.128C343.239 58.128 335.751 51.216 335.751 42.384C335.751 33.36 343.239 26.256 352.263 26.256C361.287 26.256 368.775 33.36 368.775 42.384C368.775 51.216 361.287 58.128 352.263 58.128ZM447.732 162L446.196 148.368C441.396 158.16 431.412 164.112 417.204 164.112C397.236 164.112 376.5 148.368 376.5 116.88C376.5 85.392 397.236 69.648 417.204 69.648C430.836 69.648 440.628 75.216 445.62 84.432V31.056H472.116V162H447.732ZM424.692 141.072C434.868 141.072 445.812 133.776 445.812 116.88C445.812 99.984 434.868 92.688 424.692 92.688C412.02 92.688 402.612 101.904 402.612 116.88C402.612 131.856 412.02 141.072 424.692 141.072ZM529.53 137.424C530.298 131.664 531.258 127.056 532.986 121.68L548.73 71.76H577.914L528.762 200.016H499.002L515.514 162.768L480.186 71.76H509.946L525.69 121.68C527.418 127.056 528.378 131.664 529.146 137.424H529.53ZM583.72 164.112C574.312 164.112 566.632 156.816 566.632 147.6C566.632 138.384 574.312 131.088 583.72 131.088C593.128 131.088 600.808 138.384 600.808 147.6C600.808 156.816 593.128 164.112 583.72 164.112ZM612.034 111.504C612.034 85.584 625.666 69.648 652.354 69.648C670.21 69.648 679.426 80.016 683.074 86.16H683.458C687.106 80.016 696.322 69.648 714.178 69.648C740.866 69.648 754.498 85.584 754.498 111.504V162H728.002V113.424C728.002 100.752 723.01 92.688 712.258 92.688C701.506 92.688 696.514 100.752 696.514 113.424V162H670.018V113.424C670.018 100.752 665.026 92.688 654.274 92.688C643.522 92.688 638.53 100.752 638.53 113.424V162H612.034V111.504ZM812.809 164.112C784.201 164.112 765.577 143.952 765.577 116.88C765.577 90 784.777 69.648 812.041 69.648C839.305 69.648 858.121 90 858.121 116.88L857.929 125.52H790.153C793.033 137.04 801.097 142.8 812.233 142.8C822.409 142.8 827.785 140.304 831.433 134.736H855.433C849.673 155.664 830.665 164.112 812.809 164.112ZM789.961 107.856H833.929C832.201 98.064 822.985 91.152 812.041 91.152C800.521 91.152 792.457 97.872 789.961 107.856Z" fill="#092857"/>
<defs>
<linearGradient id="paint0_linear_8_6" x1="65.7874" y1="74.6862" x2="172.603" y2="152.725" gradientUnits="userSpaceOnUse">
<stop offset="0.256016" stop-color="white"/>
<stop offset="1" stop-color="white" stop-opacity="0.5"/>
</linearGradient>
<linearGradient id="paint1_linear_8_6" x1="65.7874" y1="74.6862" x2="172.603" y2="152.725" gradientUnits="userSpaceOnUse">
<stop offset="0.256016" stop-color="white"/>
<stop offset="1" stop-color="white" stop-opacity="0.5"/>
</linearGradient>
<linearGradient id="paint2_linear_8_6" x1="65.7874" y1="74.6862" x2="172.603" y2="152.725" gradientUnits="userSpaceOnUse">
<stop offset="0.256016" stop-color="white"/>
<stop offset="1" stop-color="white" stop-opacity="0.5"/>
</linearGradient>
</defs>
</svg>
